<svg xmlns="http://www.w3.org/2000/svg" viewBox="0 0 329.3 129.6" enable-background="new 0 0 329.3 129.6"><style type="text/css">.st0{fill:#010101;} .st1{fill:#FFFFFF;}</style><path class="st0" d="M164.6 0c-90.9 0-164.6 29-164.6 64.8s73.7 64.8 164.6 64.8 164.6-29 164.6-64.8c.1-35.8-73.6-64.8-164.6-64.8"/><path class="st1" d="M164.6 6.1c-79 0-143.1 26.3-143.1 58.7 0 32.4 64.1 58.7 143.2 58.7s143.2-26.3 143.2-58.7c-.1-32.4-64.2-58.7-143.3-58.7"/><path class="st0" d="M284.6 80.5h.4c.7 0 1.3 0 1.3.5s-.5.5-1.3.5h-.4v-1zm-.8 3.3h.9v-1.6h.2c.4 0 .7.1 1.2 1l.4.6h1.1l-.6-.8c-.4-.6-.5-.8-.9-.9.9-.1 1.1-.7 1.1-1.1 0-.3-.1-.7-.4-.9-.3-.2-.6-.2-2.1-.2h-.9v3.9zm1.8-4.9c1.8 0 3.2 1.3 3.2 2.9 0 1.6-1.4 2.9-3.2 2.9-1.8 0-3.2-1.3-3.2-2.9 0-1.6 1.4-2.9 3.2-2.9m0-.7c-2.2 0-4 1.6-4 3.7 0 2 1.8 3.7 4 3.7s4-1.6 4-3.7-1.8-3.7-4-3.7"/><path class="st0" d="M57.6 85.3c2.8 2.2 4.2.6 4.5.3v-43.7h-3v-1.8h21.9v1.8h-3v39.4s-12.6 8.3-26.3 7.5h-1c-4.6 0-8.4-3.8-8.4-8.5s3.8-8.5 8.4-8.5 8.4 3.8 8.4 8.5c.1 1.8-.5 3.6-1.5 5zM104.2 83.6v2h16v-1.9h-3v-30.8h3v-1.9h-15.9v2c-2.8-2.7-4.9-3.5-9.1-2.4-8.3 2-13.3 9.4-13.3 18 0 8.4 6.1 16.8 12.2 17.2 3 .3 5.8.7 10.1-2.2m-4.4-29.2h.2c2.2.3 4.3 1.9 4.3 4.2v20c0 2.3-1.9 3.7-4.3 4h-.2c-2.3.2-4-1.9-4-4.1v-20c-.1-2.3 1.7-4.1 4-4.1M147.3 52.7c-2.4-1.9-4.8-2.9-8.8-2.9-9.8 0-17.6 8.7-17.6 18.4 0 10.9 8.3 18.5 17.6 18.5 4.2 0 8-1.2 11.4-4.3v-2.6c-5.4 4.3-9.5 3.8-9.5 3.8-5.6 0-5-4.4-5-4.4v-22.6c1.1-4.8 5-4.2 5-4.2 3.3 0 2.8 2.4 2.8 2.4-3.1.2-5 3.2-5 5.9 0 4.3 2.9 6.4 6.2 6.4 3.4 0 6.3-3.2 6.3-6.5.1-4.1-1.5-6.5-3.4-7.9M169.3 80.1v-29.5h-16.6v1.8h3v27.3c.9 3.7 1.7 6.1 10.9 7 0 0 3.9 1.4 20.5-9v-27h-13.3v29.8c-.1 1.5-4.5 1.7-4.5-.4"/><path class="st0" d="M193.7 63c0-10.6 10.2-10 10.2-10l-12.7 32.5h27.8v-13.5h-1.9c0 11.9-9.9 11.4-9.9 11.4l.3-.8 12.2-32.1h-27.8v12.5h1.8zM226.5 63c0-10.6 10.2-10 10.2-10l-12.7 32.5h27.8v-13.5h-1.9c0 11.9-9.9 11.4-9.9 11.4l.3-.8 12.2-32.1h-27.8v12.5h1.8zM257.7 40.7c0 3.5 4.3 6.3 9.6 6.3s9.6-2.8 9.6-6.3-4.3-6.3-9.6-6.3c-5.3-.1-9.6 2.8-9.6 6.3"/><path class="st0" d="M277.5 49.6l-1.2-1.4s-2.2 2.2-5.3 2.2h-14.2v1.9h2.9v31h-3v1.9h20.8v-1.8h-2.9v-31.8c.1 0 1.3-.2 2.9-2z"/></svg>