<?xml version="1.0" encoding="utf-8"?>
<!-- Generator: Adobe Illustrator 17.1.0, SVG Export Plug-In . SVG Version: 6.00 Build 0)  -->
<!DOCTYPE svg PUBLIC "-//W3C//DTD SVG 1.1//EN" "http://www.w3.org/Graphics/SVG/1.1/DTD/svg11.dtd">
<svg version="1.1" id="Layer_1" xmlns="http://www.w3.org/2000/svg" xmlns:xlink="http://www.w3.org/1999/xlink" x="0px" y="0px"
	 viewBox="0 0 329.3 129.6" style="enable-background:new 0 0 329.3 129.6;" xml:space="preserve">
<style type="text/css">
	.st0{fill:#010101;}
	.st1{fill:#FFFFFF;}
</style>
<path class="st0" d="M164.6,0C73.7,0,0,29,0,64.8c0,35.8,73.7,64.8,164.6,64.8s164.6-29,164.6-64.8C329.3,29,255.6,0,164.6,0"/>
<path class="st1" d="M164.6,6.1C85.6,6.1,21.5,32.4,21.5,64.8c0,32.4,64.1,58.7,143.2,58.7c79.1,0,143.2-26.3,143.2-58.7
	C307.8,32.4,243.7,6.1,164.6,6.1"/>
<path class="st0" d="M284.6,80.5h0.4c0.7,0,1.3,0,1.3,0.5c0,0.5-0.5,0.5-1.3,0.5h-0.4V80.5z M283.8,83.8h0.9v-1.6h0.2
	c0.4,0,0.7,0.1,1.2,1l0.4,0.6h1.1L287,83c-0.4-0.6-0.5-0.8-0.9-0.9v0c0.9-0.1,1.1-0.7,1.1-1.1c0-0.3-0.1-0.7-0.4-0.9
	c-0.3-0.2-0.6-0.2-2.1-0.2h-0.9V83.8z M285.6,78.9c1.8,0,3.2,1.3,3.2,2.9c0,1.6-1.4,2.9-3.2,2.9c-1.8,0-3.2-1.3-3.2-2.9
	C282.4,80.2,283.8,78.9,285.6,78.9 M285.6,78.2c-2.2,0-4,1.6-4,3.7c0,2,1.8,3.7,4,3.7c2.2,0,4-1.6,4-3.7
	C289.6,79.8,287.8,78.2,285.6,78.2"/>
<path class="st0" d="M57.6,85.3c2.8,2.2,4.2,0.6,4.5,0.3V41.9h-3v-1.8H81v1.8h-3v39.4c0,0-12.6,8.3-26.3,7.5l-0.2,0
	c-0.3,0-0.5,0-0.8,0c-4.6,0-8.4-3.8-8.4-8.5c0-4.7,3.8-8.5,8.4-8.5s8.4,3.8,8.4,8.5C59.2,82.1,58.6,83.9,57.6,85.3L57.6,85.3z"/>
<path class="st0" d="M104.2,83.6v2h16v-1.9h-3V52.9h3V51l-15.9,0v2c-2.8-2.7-4.9-3.5-9.1-2.4c-8.3,2-13.3,9.4-13.3,18
	c0,8.4,6.1,16.8,12.2,17.2C97.1,86.1,99.9,86.5,104.2,83.6 M99.8,54.4l0.2,0c2.2,0.3,4.3,1.9,4.3,4.2v20c0,2.3-1.9,3.7-4.3,4l-0.2,0
	c-2.3,0.2-4-1.9-4-4.1v-20C95.7,56.2,97.5,54.4,99.8,54.4"/>
<path class="st0" d="M147.3,52.7c-2.4-1.9-4.8-2.9-8.8-2.9c-9.8,0-17.6,8.7-17.6,18.4c0,10.9,8.3,18.5,17.6,18.5
	c4.2,0,8-1.2,11.4-4.3v-2.6c-5.4,4.3-9.5,3.8-9.5,3.8c-5.6,0-5-4.4-5-4.4V56.6c1.1-4.8,5-4.2,5-4.2c3.3,0,2.8,2.4,2.8,2.4
	c-3.1,0.2-5,3.2-5,5.9c0,4.3,2.9,6.4,6.2,6.4c3.4,0,6.3-3.2,6.3-6.5C150.8,56.5,149.2,54.1,147.3,52.7"/>
<path class="st0" d="M169.3,80.1V50.6h-16.6v1.8h3v27.3c0.9,3.7,1.7,6.1,10.9,7c0,0,3.9,1.4,20.5-9v-27l-13.3,0v29.8
	C173.7,82,169.3,82.2,169.3,80.1"/>
<path class="st0" d="M193.7,63c0-10.6,10.2-10,10.2-10l-12.7,32.5H219V72h-1.9c0,11.9-9.9,11.4-9.9,11.4l0.3-0.8l12.2-32.1h-27.8V63
	H193.7z"/>
<path class="st0" d="M226.5,63c0-10.6,10.2-10,10.2-10l-12.7,32.5h27.8V72h-1.9c0,11.9-9.9,11.4-9.9,11.4l0.3-0.8l12.2-32.1h-27.8
	V63H226.5z"/>
<path class="st0" d="M257.7,40.7c0,3.5,4.3,6.3,9.6,6.3c5.3,0,9.6-2.8,9.6-6.3c0-3.5-4.3-6.3-9.6-6.3
	C262,34.3,257.7,37.2,257.7,40.7"/>
<path class="st0" d="M277.5,49.6l-1.2-1.4c0,0-2.2,2.2-5.3,2.2h-14.2l0,1.9h2.9v31h-3v1.9h20.8v-1.8h-2.9V51.6
	C274.7,51.6,275.9,51.4,277.5,49.6L277.5,49.6z"/>
</svg>
